<svg width="112" height="16" viewBox="0 0 112 16" fill="none" xmlns="http://www.w3.org/2000/svg">
<g clip-path="url(#clip0_36_184)">
<path fill-rule="evenodd" clip-rule="evenodd" d="M101.354 5.11885L103.538 0.792305C103.636 0.597985 103.818 0.500551 104 0.500002C104.183 0.499451 104.366 0.596887 104.465 0.792307L106.649 5.11885L111.547 5.81472C111.814 5.85267 111.982 6.0781 112 6.31968C112.002 6.34769 112.002 6.37593 112 6.40411C111.99 6.53408 111.936 6.66299 111.83 6.76462L108.307 10.1213L109.137 14.8508C109.215 15.2942 108.777 15.6413 108.391 15.4427L104.002 13.1868L99.6123 15.4427C99.564 15.4675 99.5149 15.4838 99.4661 15.4925C99.1245 15.5531 98.798 15.2388 98.8661 14.8508L99.6958 10.1213L96.1735 6.76462C96.0552 6.65189 96.0014 6.50559 96.0015 6.36151C96.0016 6.25501 96.0311 6.14972 96.0858 6.06009C96.163 5.93355 96.2903 5.83821 96.4557 5.81472L101.354 5.11885ZM104 12.0265C104.08 12.0263 104.159 12.045 104.232 12.0826L107.918 13.977L107.224 10.0197C107.191 9.83316 107.253 9.64214 107.387 9.5145L110.293 6.7444L106.241 6.16874C106.074 6.14494 105.927 6.03795 105.848 5.88141L104.002 2.22308L104 2.22614V12.0265Z" fill="#F7936F"/>
<path d="M3.6123 15.4427C3.22586 15.6413 2.78829 15.2942 2.86609 14.8508L3.69582 10.1213L0.173489 6.76462C-0.155692 6.45092 0.0147086 5.87737 0.455698 5.81472L5.35417 5.11885L7.53829 0.792305C7.73504 0.402565 8.26801 0.402565 8.46476 0.792305L10.6489 5.11885L15.5474 5.81472C15.9883 5.87737 16.1587 6.45092 15.8296 6.76462L12.3072 10.1213L13.137 14.8508C13.2148 15.2942 12.7772 15.6413 12.3908 15.4427L8.00153 13.1868L3.6123 15.4427Z" fill="#F7936F"/>
<path d="M27.6123 15.4427C27.2259 15.6413 26.7883 15.2942 26.8661 14.8508L27.6958 10.1213L24.1735 6.76462C23.8443 6.45092 24.0147 5.87737 24.4557 5.81472L29.3542 5.11885L31.5383 0.792305C31.735 0.402565 32.268 0.402565 32.4648 0.792305L34.6489 5.11885L39.5474 5.81472C39.9883 5.87737 40.1587 6.45092 39.8296 6.76462L36.3072 10.1213L37.137 14.8508C37.2148 15.2942 36.7772 15.6413 36.3908 15.4427L32.0015 13.1868L27.6123 15.4427Z" fill="#F7936F"/>
<path d="M51.6123 15.4427C51.2259 15.6413 50.7883 15.2942 50.8661 14.8508L51.6958 10.1213L48.1735 6.76462C47.8443 6.45092 48.0147 5.87737 48.4557 5.81472L53.3542 5.11885L55.5383 0.792305C55.735 0.402565 56.268 0.402565 56.4648 0.792305L58.6489 5.11885L63.5474 5.81472C63.9883 5.87737 64.1587 6.45092 63.8296 6.76462L60.3072 10.1213L61.137 14.8508C61.2148 15.2942 60.7772 15.6413 60.3908 15.4427L56.0015 13.1868L51.6123 15.4427Z" fill="#F7936F"/>
<path d="M75.6123 15.4427C75.2259 15.6413 74.7883 15.2942 74.8661 14.8508L75.6958 10.1213L72.1735 6.76462C71.8443 6.45092 72.0147 5.87737 72.4557 5.81472L77.3542 5.11885L79.5383 0.792305C79.735 0.402565 80.268 0.402565 80.4648 0.792305L82.6489 5.11885L87.5474 5.81472C87.9883 5.87737 88.1587 6.45092 87.8296 6.76462L84.3072 10.1213L85.137 14.8508C85.2148 15.2942 84.7772 15.6413 84.3908 15.4427L80.0015 13.1868L75.6123 15.4427Z" fill="#F7936F"/>
</g>
<defs>
<clipPath id="clip0_36_184">
<rect width="112" height="16" fill="white"/>
</clipPath>
</defs>
</svg>
